<?xml version="1.0" encoding="utf-8"?>
<!-- Generator: Adobe Illustrator 25.2.0, SVG Export Plug-In . SVG Version: 6.00 Build 0)  -->
<svg version="1.1" id="Layer_1" xmlns="http://www.w3.org/2000/svg" xmlns:xlink="http://www.w3.org/1999/xlink" x="0px" y="0px"
	 viewBox="0 0 1920 1080" style="enable-background:new 0 0 1920 1080;" xml:space="preserve">
<style type="text/css">
	.st0{fill:#FFFFFF;}
</style>
<g>
	<g>
		<path d="M751.25,669.62c1.93,0,1.93-3,0-3C749.32,666.62,749.32,669.62,751.25,669.62L751.25,669.62z"/>
	</g>
</g>
<g>
	<g>
		<path class="st0" d="M803.06,448.72c3.62,8.14,3.78,17.27,0.36,25.5c-3.04,7.31-8.16,13.6-12.48,20.17
			c-8,12.16-15.1,25.68-16.16,40.47c-0.84,11.62,2.7,23.98,10.58,32.71c8.71,9.64,21.9,12.27,34.26,9.51
			c12.33-2.76,25.9-10.56,29.29-23.56c1.92-7.35,0.67-14.92,0.48-22.38c-0.2-7.96,1.8-15.26,4.84-22.56
			c5.32-12.76,12.45-25.11,12.09-39.38c-0.3-11.81-4.88-23.27-12.4-32.33c-8.29-9.98-21.76-18.2-35.17-16.14
			c-6.3,0.97-11.66,4.76-14.08,10.75c-2.72,6.73-1.3,14.29,0.22,21.13c0.97,4.4,7.72,2.54,6.75-1.86
			c-1.2-5.42-2.84-12.16-0.17-17.43c3.05-6.01,10.34-6.62,16.22-5.38c10.37,2.19,19.31,9.96,24.76,18.8
			c5.7,9.24,8.3,20.54,6.13,31.27c-2.46,12.14-9.34,22.73-13.28,34.37c-1.86,5.51-2.94,11.19-2.95,17.01
			c-0.01,6.34,1.16,12.73,0.41,19.06c-1.64,13.85-17.09,21.54-29.7,22.62c-11.95,1.02-22.11-4.8-27.42-15.45
			c-5.13-10.27-4.8-22-1.4-32.74c4.48-14.16,13.78-25.43,21.41-37.89c7.66-12.5,9.49-26.23,3.45-39.81
			C807.27,441.08,801.24,444.64,803.06,448.72L803.06,448.72z"/>
	</g>
</g>
<g>
	<g>
		<path class="st0" d="M827.71,484.17c-5.14,7.2-10.24,14.43-15.24,21.73c-3.52,5.14-8.97,11.07-9.72,17.51
			c-0.61,5.23,3.16,10.18,8.59,10.42c6.37,0.28,11.38-5.09,15.36-9.34c9.82-10.49,18.16-23.53,20.22-37.99
			c1.24-8.73,0.69-26.45-9.35-30.64c-4.39-1.83-9.35,0.21-10.55,4.94c-1.23,4.84,1.05,9.99,2.14,14.64
			c1.03,4.38,7.78,2.53,6.75-1.86c-0.68-2.89-2.86-7.11-2.18-10.07c1.01-4.43,4.97,5.1,5.43,6.81c3.28,12.06-0.28,24.37-6.49,34.85
			c-3.08,5.19-6.77,9.98-10.9,14.38c-1.95,2.08-4,4.46-6.43,5.97c-1.05,0.65-3.95,1.93-5.14,0.65c-1.38-1.48,0.23-4.28,0.95-5.63
			c2.95-5.54,7.05-10.64,10.62-15.79c3.96-5.71,7.97-11.39,12.02-17.05C836.37,484.03,830.31,480.53,827.71,484.17L827.71,484.17z"
			/>
	</g>
</g>
<g>
	<g>
		<path class="st0" d="M758.8,394.46c-0.37,23.51-8.4,45.87-20.58,65.8c-6.21,10.17-13.42,19.69-21.34,28.58
			c-7.34,8.24-13.71,17.68-15.68,28.76c-8.19,46.03,39.37,73.53,77.89,79.84c10.92,1.79,22,2.19,32.94,0.33
			c11.62-1.98,21.49-6.85,31.23-13.23c8.51-5.58,15.75-15.14,19.9-24.38c4.93-10.96,4-22.99,4.88-34.7
			c0.49-6.54,1.65-12.76,4.36-18.76c2.4-5.31,5.31-10.4,7.99-15.57c5.03-9.73,9.23-19.59,9.64-30.67
			c0.83-22.06-8.14-43.01-20.74-60.69c-13.85-19.43-32.08-38.31-54.38-47.76c-9.95-4.22-21.78-7.08-32.5-4.43
			c-10.64,2.63-19.65,9.96-23.95,20.07c-1.75,4.1,4.28,7.67,6.04,3.53c3.85-9.04,11.51-15.21,21.16-17.17
			c9.8-1.99,21.18,1.67,29.93,5.95c17.9,8.75,32.84,23.74,44.79,39.44c12.2,16.04,21.89,34.91,22.65,55.4
			c0.41,11.14-2.59,20.7-7.55,30.58c-4.66,9.27-10.64,18.31-12.88,28.57c-2.4,10.95-1.33,22.2-2.85,33.24
			c-1.5,10.88-8.15,19.96-15.58,27.68c-7.03,7.31-17.86,12.21-27.53,14.75c-10.32,2.72-21.14,2.94-31.7,1.64
			c-19.07-2.35-38.52-8.95-53.97-20.59c-16.28-12.27-27.73-33.66-22.32-54.36c3.13-11.98,11.55-20.23,19.14-29.48
			c7.21-8.8,13.81-18.11,19.42-28.01c11.16-19.7,18.24-41.59,18.6-64.34C765.87,389.95,758.87,389.95,758.8,394.46L758.8,394.46z"/>
	</g>
</g>
<g>
	<g>
		<path class="st0" d="M704.77,362.51c-5.13,33.12-24.26,63.27-41.64,91.25c-8.51,13.7-17.1,27.38-24.74,41.6
			c-3.95,7.36-7.66,14.85-10.98,22.52c-1.45,3.33-2.04,6.85-3.33,10.19c-1.24,3.21-2.53,5.38-2.57,8.93
			c0.34-0.82,0.68-1.65,1.03-2.47c-4.57,5.64-5.02,14.69-5.94,21.66c-1.04,7.86-1.2,15.74,0.08,23.59
			c2.56,15.7,11.54,28.97,26.14,35.57c7.11,3.21,15.61,4.66,20.8,10.88c5.18,6.21,5.75,16.81,7.42,24.49
			c3.44,15.79,10.6,29.47,22.9,40.23c23.66,20.71,56.43,28.31,86.69,20.02c26.07-7.14,48.76-23.16,65.5-44.22
			c16.77-21.09,27.99-46.22,34.56-72.26c3.92-15.53,5.68-31.4,7.61-47.27c1.2-9.84,2.49-19.67,4.45-29.39
			c1.81-8.97,4.67-17.31,7.65-25.93c5.37-15.55,11.08-31.69,12.13-48.22c0.91-14.44-1.53-29.14-6.85-42.58
			c-5.41-13.69-13.56-26.19-23.91-36.67c-12.02-12.16-26.81-21.75-40.81-31.45c-7.53-5.22-15.53-10.18-22.5-16.15
			c-6.45-5.53-11.79-12.22-17.6-18.39c-10.21-10.83-21.99-19.03-37.2-20.27c-30.28-2.47-53.25,23.74-57.43,51.79
			c-1.06,7.11-1.18,14.25-0.53,21.41c0.4,4.45,7.4,4.49,7,0c-1.49-16.58,1.15-34.06,11.5-47.58c10.35-13.51,27.33-21.54,44.34-17.88
			c18.74,4.03,28.86,20.47,41.79,32.94c6.8,6.55,14.89,11.7,22.62,17.07c7.93,5.51,15.91,10.96,23.68,16.7
			c14.68,10.85,27.78,22.69,36.78,38.8c8.11,14.52,12.54,31.02,12.31,47.68c-0.26,18.61-7.07,37.01-13.25,54.35
			c-6.88,19.29-9.4,39.27-11.85,59.52c-3.89,32.16-10.91,63.29-27.58,91.46c-15.3,25.86-37.98,47.48-66.71,57.46
			c-16.9,5.87-34.74,7.44-52.14,2.76c-17.32-4.66-34.32-14.79-45.16-29.27c-5.63-7.52-8.81-15.69-10.87-24.81
			c-1.85-8.18-2.5-18.33-6.87-25.65c-4.34-7.27-11.07-10.17-18.6-13.05c-8.59-3.28-16.23-6.92-21.63-14.66
			c-5.95-8.52-8.3-18.39-8.34-28.71c-0.02-4.68,0.4-9.35,1.13-13.97c0.71-4.55,1.17-10.13,3.17-14.26c1.41-2.91,1.9-5.78,3.21-8.82
			c1.99-4.61,2.96-9.52,5.07-14.16c3.93-8.64,8.31-17.07,12.98-25.34c18.77-33.3,41.51-64.22,55.6-100.02
			c3.51-8.91,6.18-18.07,7.65-27.54C712.2,359.96,705.46,358.06,704.77,362.51L704.77,362.51z"/>
	</g>
</g>
<g>
	<g>
		<path class="st0" d="M646.8,287.66c-35.58,37.9-71.43,80.61-79.56,133.7c-2.14,13.98-2.53,28.16-4.66,42.14
			c-2.16,14.13-6.52,27.83-12.36,40.85c-10.7,23.9-25.07,46.1-33.7,70.93c-7.66,22.04-11.33,47.36-2.76,69.7
			c8.29,21.61,27.78,35.02,39.19,54.58c12.93,22.18,4.62,47.23,9.38,71.12c4.43,22.18,22.23,38.69,42.49,47.08
			c23.23,9.62,49.35,8.66,73.6,3.81c25.92-5.18,51.14-14.67,74.38-27.21c46.56-25.13,85.97-63.55,112.68-109.19
			c13.48-23.03,24.01-48.15,29.94-74.21c6.26-27.5,7.19-55.74,12.14-83.43c2.47-13.83,6.57-27.08,11.48-40.22
			c4.81-12.87,9.99-25.61,13.01-39.05c5.73-25.52,3.1-52.13-11.65-74.23c-6.77-10.15-15.56-18.22-24.71-26.18
			c-10-8.69-19.54-17.55-28.13-27.67c-16.88-19.9-31.17-41.99-49.57-60.59c-16.71-16.89-37.56-31.73-61.38-36.02
			c-23.94-4.31-47.7,3.67-67.3,17.3c-10.87,7.55-20.68,16.49-30.08,25.77c-3.21,3.17,1.74,8.12,4.95,4.95
			c17.75-17.53,37.67-34.6,62.58-40.39c24.39-5.67,48.16,2.86,67.85,17.25c20.02,14.63,35.12,34.64,50.08,54.12
			c7.49,9.76,15.01,19.51,23.25,28.66c8.43,9.37,18.11,17.37,27.53,25.7c19.41,17.16,32.39,38.75,32.58,65.31
			c0.19,26.85-11.91,50.79-20.22,75.67c-8.41,25.2-10.09,51.6-13.45,77.77c-3.42,26.57-9.42,52.34-20.17,76.96
			c-20.48,46.88-54.16,88-95.87,117.58c-20.82,14.77-43.62,26.8-67.75,35.17c-24.77,8.59-51.32,14.73-77.68,12.17
			c-21.45-2.09-43.46-11.76-55.93-29.98c-14.11-20.62-6.74-45.25-9.96-68.35c-3.08-22.05-18.15-36.82-31.86-53.05
			c-7.39-8.75-13.62-18.18-16.7-29.33c-3.2-11.59-3.21-23.9-1.35-35.72c3.9-24.77,15.69-47,27.15-68.96
			c11.73-22.47,22.21-45.17,25.59-70.54c1.79-13.4,2.25-26.97,4.44-40.32c2.04-12.43,5.69-24.59,10.63-36.18
			c9.98-23.39,24.82-44.42,41.09-63.83c8.26-9.85,16.94-19.33,25.73-28.7C654.83,289.33,649.89,284.37,646.8,287.66L646.8,287.66z"
			/>
	</g>
</g>
<g>
	<g>
		<path class="st0" d="M943.23,402.47c4.65,44.9-14.54,85.57-23.56,128.52c-8.91,42.41-10.63,85.81-15.17,128.8
			c-2.28,21.54-6.44,42.81-12.47,63.63c-6.22,21.47-15.85,42.02-26.51,61.65c-5.19,9.55-11.23,18.66-17.18,27.76
			c-5.87,8.98-11.37,18.27-17.46,27.1c-11.27,16.33-22.67,32.88-35.98,47.63c-14.31,15.87-29.39,30.28-47.44,41.89
			c-17.68,11.37-39.35,17.8-60.08,20.25c-44.37,5.24-88.05-7-132.14-9.56c-22.1-1.28-44.15,1.59-66.23,0.37
			c-20.01-1.11-38.18-7.25-53.47-20.39c-13.22-11.36-24.02-26.29-31.22-42.15c-1.63-3.58-2.23-7.46-3.86-11.14
			c-2.37-5.35-4.36-10.87-6.08-16.46c-3.02-9.82-5.16-19.89-6.86-30.03c-7.41-44.28-3.27-89.37-9.24-133.75
			c-2.83-21-7.75-41.68-14.48-61.77c-6.7-20-14.96-39.43-22.5-59.11c-3.68-9.6-7.21-19.27-10.31-29.08
			c-1.48-4.66-2.86-9.36-4.13-14.08c-1.32-4.91-1.89-10.45-3.68-15.18c-0.56-1.48-1.49-2.68-2-4.19c-0.76-2.26-1.07-4.85-1.54-7.18
			c-1.13-5.65-2.08-11.34-2.78-17.06c-1.26-10.12-1.84-20.33-1.65-30.53c0.38-20.87,4.14-41.6,11.67-61.09
			c1.55-4.01,3.29-7.65,4.13-11.82c1.06-5.23,4.89-10.63,7.47-15.26c5.03-9.02,10.18-18.14,15.92-26.73
			c22.15-33.21,53.68-59.72,87.58-80.23c34.79-21.05,72.06-37.39,105.48-60.78c16.63-11.64,32.33-25.35,46.7-39.7
			c14.96-14.95,27.72-32.06,40.47-48.88c12.53-16.53,25.12-32.95,39.9-47.57c6.55-6.48,13.7-13.12,21.51-18.03
			c1.61-1.01,3.56-1.47,5.09-2.57c1.73-1.24,3.05-2.95,4.83-4.19c4.17-2.89,8.81-5.26,13.42-7.34c18.82-8.51,40.1-12.16,60.54-8.79
			c19.72,3.25,38.28,11.6,54.33,23.41C864.36,61,884.3,94.93,895.3,130.19c10.68,34.23,13.45,70.26,14.38,105.91
			c0.46,17.67,0.45,35.35,0.63,53.02c0.09,8.72,0.22,17.45,0.49,26.17c0.26,8.58,0.05,17.31,2.71,25.56
			c2.72,8.43,8.34,13.83,13.76,20.56c6.03,7.49,10.79,15.73,12.41,25.3c0.75,4.43,7.5,2.55,6.75-1.86
			c-1.58-9.32-5.97-17.6-11.62-25.09c-2.71-3.59-5.65-6.97-8.61-10.34c-3.63-4.13-5.67-8.76-6.95-14.08
			c-2.06-8.54-1.42-18.18-1.62-26.94c-0.21-9.01-0.3-18.03-0.37-27.04c-0.29-36.61-0.2-73.37-5.54-109.68
			c-5.3-36.05-16.69-71.4-37.73-101.45c-22.49-32.12-56.28-56.64-95.74-62.1c-20.17-2.79-40.55,0.82-59.26,8.67
			c-3.9,1.64-7.71,3.47-11.39,5.56c-2.23,1.27-4.54,2.59-6.62,4.11c-1.88,1.38-3.33,3.15-5.4,4.26
			c-7.66,4.11-14.65,9.93-21.02,15.87c-31.56,29.41-53.01,67.44-82.7,98.53c-29.87,31.27-65.91,54.71-103.83,74.96
			c-36.26,19.37-73.37,38.24-103.19,67.19c-14.32,13.89-28.31,29.46-38.9,46.41c-5.48,8.78-10.76,17.8-15.64,26.92
			c-4.61,8.61-7.4,17.42-10.81,26.53c-7.42,19.83-11,41.01-11.3,62.15c-0.15,10.51,0.54,21.02,1.9,31.44
			c1.15,8.85,1.83,19.45,5.61,27.58c2.05,4.42,2.7,9.54,3.94,14.3c1.39,5.33,2.94,10.62,4.6,15.87
			c3.29,10.38,7.05,20.61,10.96,30.77c7.7,19.98,16.09,39.72,22.74,60.08c7.05,21.61,12.07,43.93,14.47,66.54
			c2.39,22.56,2.24,45.33,3.05,67.97c0.8,22.57,2.55,45.04,6.93,67.23c2.06,10.43,4.75,20.75,8.51,30.7
			c1.75,4.63,4.05,9.1,5.18,13.88c0.94,3.97,3.03,7.64,4.94,11.24c8.38,15.81,19.48,30.45,33.66,41.48
			c6.65,5.18,13.9,9.5,21.71,12.7c9.31,3.81,19.34,5.06,29.27,6.08c23.04,2.37,46.46-1.36,69.6-0.03
			c23.32,1.34,46.24,5.44,69.4,8.19c42.8,5.09,86.71,3.5,124.8-18.9c18.29-10.76,33.87-25.66,48.03-41.28
			c13.6-14.99,24.92-31.53,36.76-47.89c6.48-8.95,12.08-18.55,18.13-27.8c6.11-9.34,12.24-18.67,17.79-28.36
			c11.01-19.2,20.84-40.18,27.3-61.35c6.38-20.92,11-42.51,13.43-64.24c2.5-22.32,4.1-44.72,6.23-67.08
			c2.16-22.63,4.93-45.22,9.71-67.46c4.77-22.19,12.61-43.57,17.89-65.64c4.93-20.6,7.72-41.7,5.52-62.87
			C949.77,398.03,942.76,397.99,943.23,402.47L943.23,402.47z"/>
	</g>
</g>
<g>
	<g>
		<path class="st0" d="M163.47,268.62c25.2-45.11,70.54-72.09,114.99-95.3c23.21-12.12,46.82-23.69,68.71-38.15
			c20.51-13.55,39.29-29.64,56.18-47.49c36.24-38.29,65.91-82.42,106.57-116.5c40.35-33.83,88.62-58.2,139.6-71.24
			c50.99-13.04,109.52-17.03,158.49,5.64c46.21,21.39,78.55,64.01,96.62,110.67c19.6,50.6,23.18,105.73,22.93,159.48
			c-0.13,27.51-1.75,55.07-0.47,82.57c1.17,25.04,6.18,49.74,15.7,72.97c4.85,11.82,10.09,23.52,13.34,35.91
			c3.65,13.89,4.64,28.27,4.26,42.59c-0.74,28.06-6,55.73-10.07,83.42c-8.07,55-16.2,109.99-24.48,164.95
			c-8.12,53.91-16.22,107.65-33.47,159.56c-17.21,51.79-40.81,101.43-64.55,150.49c-22.23,45.95-46.51,93.94-89.63,123.81
			c-43.63,30.22-100.61,39.4-151.46,24.08c-50.24-15.13-90.1-51.59-132.34-80.95c-20.66-14.36-42.58-26.85-65.85-36.47
			c-24.43-10.11-50.12-17.34-73.44-29.99c-98.39-53.38-97.98-179.22-112.67-275.65c-8.26-54.23-22.51-107.19-41.22-158.71
			c-18.34-50.51-42.08-101.66-40.6-156.59c0.68-25.12,6.81-50.02,19.73-71.69c2.31-3.88-3.74-7.4-6.04-3.53
			c-27.58,46.28-23.81,101.98-9.08,151.83c7.99,27.04,18.76,53.14,28.43,79.6c9.52,26.04,18.11,52.43,25.12,79.26
			c7.13,27.3,12.88,54.97,17.09,82.87c4.23,28.04,7.02,56.27,10.91,84.35c7.19,51.98,19.39,105.38,51.64,148.06
			c14.08,18.63,31.77,34.48,52.27,45.75c23.44,12.88,49.28,20.31,73.95,30.35c24.87,10.12,48.11,23.78,70.01,39.26
			c22.4,15.84,43.87,32.98,66.86,47.98c21.27,13.88,44.07,25.97,68.73,32.54c25.74,6.87,52.88,7.81,79.09,3.2
			c49.79-8.75,91.54-37.55,120.93-78.15c16.06-22.19,28.56-46.72,40.53-71.28c12.33-25.31,24.29-50.81,35.79-76.51
			c22.7-50.76,41.57-102.75,52.31-157.43c11.02-56.15,18.15-113.19,26.56-169.77c4.17-28.04,8.18-56.1,12.36-84.14
			c4.15-27.88,9.4-55.82,9.69-84.09c0.14-13.35-1.02-26.81-4.3-39.78c-3.23-12.79-8.64-24.83-13.62-37
			c-10.52-25.72-15.17-52.75-15.74-80.46c-0.58-28.01,0.96-56,0.74-84.01c-0.22-28.21-1.67-56.45-5.98-84.35
			c-7.8-50.53-26.3-100.44-60.82-138.94c-34.44-38.42-81.87-57.45-132.98-58.9c-54.11-1.54-108.88,12.62-157.28,36.36
			c-47.75,23.42-87.65,57.19-122.23,97.29c-18.31,21.23-35.51,43.42-54.61,63.96c-17.88,19.21-37.83,36.44-59.9,50.67
			c-44.76,28.84-95.82,47.04-137.4,80.92c-18.28,14.89-34.36,32.51-45.9,53.15C155.22,269.02,161.27,272.55,163.47,268.62
			L163.47,268.62z"/>
	</g>
</g>
<g>
	<g>
		<path class="st0" d="M927.08-43.32c23.98,75,35.04,153.87,32.26,232.58c-1.41,40.02-6.76,80.01-0.17,119.86
			c6.46,39.01,20.63,76.26,20.4,116.25c-0.12,20.49-2.78,40.85-5.54,61.12c-2.75,20.19-5.72,40.34-8.89,60.47
			c-6.33,40.25-13.41,80.38-21.01,120.41c-15.2,80.1-32.44,159.8-49.76,239.46c-14.71,67.64-28.91,138.42-68.12,196.87
			c-4.85,7.24-10.09,14.19-15.67,20.88c-2.87,3.44,2.06,8.41,4.95,4.95c44.94-53.82,63.78-122.65,78.78-189.75
			c17.76-79.39,34.77-159,50.44-238.83c8-40.74,15.53-81.57,22.34-122.53c6.64-39.92,13.24-80.05,17.47-120.31
			c2.12-20.14,2.92-40.42,0.37-60.56c-2.41-19.04-7.21-37.62-11.74-56.24c-4.8-19.77-9-39.58-10.04-59.96
			c-1.06-20.79,0.3-41.6,1.6-62.34c4.97-79.48-1.35-158.57-22.42-235.54c-2.63-9.61-5.49-19.16-8.52-28.65
			C932.46-49.45,925.7-47.63,927.08-43.32L927.08-43.32z"/>
	</g>
</g>
<g>
	<g>
		<path class="st0" d="M-37.85,208.9c19.15-35.95,44.93-68.12,76.01-94.47C55.18,100,73.92,87.98,92.43,75.61
			c17.95-12,35.17-24.89,51.59-38.92C208.45-18.34,261.19-86.49,331.24-135c37.15-25.73,78.71-45.47,123.82-51.58
			c4.44-0.6,2.55-7.35-1.86-6.75c-82.5,11.18-150.18,65.76-207.84,122.14c-31.27,30.57-61.12,62.62-93.67,91.87
			c-16.52,14.85-33.74,28.9-52,41.56c-18.49,12.82-37.73,24.55-55.52,38.36c-36.35,28.22-66.44,64.18-88.07,104.78
			C-46.01,209.35-39.97,212.89-37.85,208.9L-37.85,208.9z"/>
	</g>
</g>
<g>
	<g>
		<path class="st0" d="M-103.78,601.37c4.93,47.12,12.4,93.97,22.52,140.26c9.9,45.29,20.7,91.74,41.45,133.47
			C-1.59,951.96,66.68,1009.34,128,1067.28c40.25,38.03,80.5,76.05,120.74,114.08c3.27,3.09,8.23-1.85,4.95-4.95
			c-35.19-33.24-70.37-66.49-105.56-99.73c-32.43-30.64-65.46-60.77-96.77-92.58C22.4,954.67-4.9,923.14-25.45,887.15
			c-22.7-39.75-34.39-84.26-44.78-128.52c-12.17-51.8-21.02-104.35-26.55-157.26C-97.24,596.93-104.25,596.88-103.78,601.37
			L-103.78,601.37z"/>
	</g>
</g>
<g>
	<g>
		<path class="st0" d="M974.37-24.18c14.31,31.12,9.47,66.49,5.91,99.38c-4.03,37.26-6.08,74.71-5.99,112.19
			c0.09,36.23,1.89,72.54,7.04,108.43c5.2,36.29,15.1,71.8,19.17,108.27c8.24,73.79-9.36,146.85-19.34,219.53
			c-5,36.36-7.51,72.93-9.34,109.57c-1.86,37.21-3.6,74.44-4.96,111.67c-2.74,74.77-3.54,149.76,2.56,224.39
			c0.75,9.19,1.61,18.36,2.57,27.53c0.46,4.44,7.47,4.48,7,0c-7.83-74.84-8.24-150.2-6.02-225.35c1.11-37.63,2.86-75.24,4.63-112.84
			c1.76-37.52,3.48-75.09,7.71-112.44c8.27-73.05,27.26-145.47,23.94-219.46c-1.63-36.34-10.22-71.58-16.91-107.19
			c-6.89-36.67-9.91-73.83-10.78-111.1c-0.88-37.58,0.35-75.22,3.68-112.66c2.95-33.22,9.77-67.51,2.79-100.67
			c-1.66-7.89-4.26-15.46-7.63-22.78C978.54-31.8,972.5-28.25,974.37-24.18L974.37-24.18z"/>
	</g>
</g>
<g>
	<g>
		<path class="st0" d="M999.91-46.58c11.65,77.4-0.59,155.46-3.96,232.99c-1.65,37.86-1.01,75.83,5.07,113.3
			c6.31,38.83,17.43,76.83,21.25,116.06c3.88,39.86,0.78,79.94-1.93,119.76c-2.75,40.36-5.49,80.73-8.24,121.09
			c-2.75,40.45-6.44,81-6.72,121.56c-0.25,37.2,3.66,74.08,12.56,110.23c17.06,69.27,49.79,133.8,87.88,193.74
			c4.87,7.67,9.85,15.27,14.9,22.82c2.49,3.73,8.56,0.23,6.04-3.53c-39.94-59.74-75.38-123.51-96.02-192.68
			c-10.48-35.12-16.78-71.28-18.06-107.93c-1.41-40.11,2.07-80.23,4.79-120.21c2.77-40.75,5.54-81.49,8.32-122.24
			c2.7-39.63,6.43-79.44,5.01-119.19c-1.38-38.57-10.11-75.82-17.82-113.47c-7.91-38.6-11.42-77.15-10.74-116.55
			c1.34-76.99,14.5-153.86,7.64-230.91c-0.79-8.94-1.89-17.84-3.22-26.71C1005.99-52.89,999.25-51,999.91-46.58L999.91-46.58z"/>
	</g>
</g>
<g>
	<g>
		<path class="st0" d="M1069.92-51.18c-2.14,40.75-7.05,81.31-14.85,121.36c-7.73,39.66-19.65,77.95-30.09,116.91
			c-4.96,18.5-9.09,37.28-10.83,56.38c-1.78,19.57-0.42,39.12,2.32,58.53c2.81,19.93,7.02,39.62,10.45,59.45
			c3.49,20.22,5.69,40.57,6.68,61.07c3.84,80.06-8.57,159.95-4.27,240.01c2.09,38.86,8.85,77.04,20.54,114.16
			c11.48,36.46,26.89,71.57,43.75,105.83c35.78,72.69,75.68,143.57,115.94,213.85c5.15,9,10.33,17.98,15.54,26.95
			c2.26,3.9,8.31,0.38,6.04-3.53c-40.82-70.41-80.54-141.57-117.88-213.9c-35.59-68.94-67.16-141.03-75.06-219
			c-8.06-79.51,3.85-159.17,3.11-238.77c-0.18-19.67-1.13-39.34-3.35-58.9c-2.22-19.58-5.95-38.9-9.55-58.26
			c-3.67-19.76-7.1-39.64-7.93-59.76c-0.84-20.46,1.58-40.7,5.94-60.67c8.42-38.54,21.69-75.84,30.34-114.36
			c8.66-38.58,14.7-77.76,18.09-117.16c0.87-10.05,1.54-20.12,2.07-30.19C1077.16-55.68,1070.16-55.67,1069.92-51.18L1069.92-51.18z
			"/>
	</g>
</g>
<g>
	<g>
		<path class="st0" d="M1191.96-45.04c-30.73,85.31-63.33,169.94-97.82,253.8c-8.54,20.78-17.34,41.45-25.95,62.2
			c-8.09,19.51-15.08,39.42-16.64,60.63c-1.57,21.34,1.65,42.67,4.8,63.72c3.31,22.09,6.13,44.01,5.1,66.39
			c-1.99,43.46-14.03,85.75-16.41,129.18c-2.08,37.99,5.19,75.4,19.77,110.46c29.32,70.54,82.09,128.21,132.75,184.07
			c61.82,68.18,123.64,136.35,185.46,204.53c7.73,8.52,15.46,17.04,23.18,25.57c3.03,3.34,7.97-1.62,4.95-4.95
			c-61.05-67.33-122.1-134.65-183.15-201.98c-52.34-57.72-108.76-114.92-144.99-184.72c-17.04-32.82-28.87-68.62-31.01-105.7
			c-2.48-42.97,8.38-85.03,13.79-127.36c2.71-21.21,3.82-42.49,1.76-63.81c-2.08-21.45-6.46-42.61-8.43-64.07
			c-2.01-21.83-0.63-43.05,6.02-64.02c6.62-20.87,16.04-40.88,24.46-61.07c34.3-82.3,66.81-165.35,97.48-249.07
			c3.9-10.64,7.77-21.3,11.61-31.96C1200.24-47.43,1193.48-49.25,1191.96-45.04L1191.96-45.04z"/>
	</g>
</g>
<g>
	<g>
		<path class="st0" d="M1385.14-65.78c-57.09,84.32-114.19,168.64-171.28,252.96c-14.18,20.93-28.36,41.86-42.53,62.8
			c-12.48,18.45-24.84,37.16-32.86,58.06c-16.49,42.97-11.96,89.96-14.5,134.97c-1.36,24.23-6.03,47.54-12.38,70.92
			c-6.15,22.66-12.95,45.23-15.82,68.6c-2.59,21.05-2.06,43.08,5.01,63.27c6.94,19.83,20.27,35.75,35.31,50.04
			c35.98,34.19,73.81,66.59,110.71,99.78c37.06,33.32,73.92,66.88,111.31,99.83c35.95,31.68,72.74,62.47,111.71,90.4
			c38.86,27.85,79.54,53.1,121.23,76.47c10.2,5.71,20.45,11.31,30.76,16.82c3.97,2.12,7.51-3.92,3.53-6.04
			c-41.22-22.04-81.64-45.62-120.54-71.56c-39.78-26.52-77.49-55.78-113.85-86.81c-36.9-31.5-72.72-64.26-108.79-96.69
			c-37.18-33.44-74.37-66.88-111.55-100.32c-16.38-14.73-34.08-28.92-47.77-46.3c-13.99-17.76-20.61-39.08-21.41-61.52
			c-1.67-47,19.31-90.51,26.43-136.25c6.98-44.82,0.72-90.75,9.35-135.36c8.96-46.34,39.63-84,65.49-122.18
			c56.03-82.75,112.07-165.5,168.1-248.25c6.79-10.03,13.58-20.06,20.38-30.09C1393.72-65.99,1387.66-69.5,1385.14-65.78
			L1385.14-65.78z"/>
	</g>
</g>
<g>
	<g>
		<path class="st0" d="M1337.9,201.86c2.82,9.81,6.09,19.11,3.57,29.36c-1.97,7.98-5.9,15.96-3.53,24.3
			c1.93,6.82,7.26,11.98,14.62,10.73c2.74-0.46,6.73-1.04,8.92-2.78c3.62-2.87,6.59-7.97,9.58-11.54
			c5.82-6.96,11.62-13.94,16.99-21.26c4.43-6.04,11.35-13.66,11.66-21.39c0.56-13.96-5.78-28.56-16.74-37.3
			c-5.87-4.68-13.52-8.12-21.15-7.14c-7.88,1.01-14.42,6.16-18.16,13.03c-2.16,3.96,3.88,7.49,6.04,3.53
			c9.29-17.03,28.57-8.06,36.7,4.82c3.82,6.06,6.12,13.16,6.33,20.33c0.23,8-7.16,15.83-11.76,22c-5.6,7.5-11.68,14.63-17.69,21.81
			c-2.47,2.96-4.56,6.65-8.2,8.03c-5.67,2.15-9.65-0.17-10.73-6.17c-1.48-8.21,4.03-17.04,5.02-25.2c1.12-9.23-2.2-18.28-4.71-27.03
			C1343.41,195.67,1336.66,197.51,1337.9,201.86L1337.9,201.86z"/>
	</g>
</g>
<g>
	<g>
		<path class="st0" d="M1330.46,149.64c-9.36,13.74-14.63,33.06-12.58,49.61c1.15,9.27,4.04,18.13,6.68,27.05
			c2.92,9.85,0.2,17.94-2.92,27.34c-2.57,7.71-4.05,14.8-2.21,22.85c1.62,7.1,5.32,13.63,10.08,19.1
			c10.69,12.25,26.97,17.71,42.98,16.76c8.45-0.5,16.66-2.64,24.43-5.95c7.78-3.31,14.2-8.01,21.14-12.65
			c13.12-8.76,23.62-20.91,30.05-35.36c7.46-16.76,7.88-34.3,4.27-52.1c-1.83-9.06-4.58-17.82-7.29-26.65
			c-2.43-7.94-4.97-15.9-8.75-23.32c-8.48-16.64-23.22-29.29-42.03-32.12c-18.2-2.75-36.43,3.51-51.04,14.25
			c-3.59,2.64-0.1,8.72,3.53,6.04c11.91-8.75,26.12-14.54,41.09-13.93c15.82,0.64,29.31,9.12,38.11,22.02
			c8.7,12.76,12.91,29.07,16.83,43.85c4.36,16.48,7.47,34.17,2.1,50.81c-4.34,13.46-12.24,25.53-22.89,34.84
			c-11.11,9.72-24.79,18.21-39.23,21.69c-14.76,3.56-31.7,1.7-43.58-8.41c-5.37-4.57-9.77-10.48-12.07-17.19
			c-2.7-7.91-1.36-14.95,1.21-22.67c2.49-7.49,5.37-15.11,4.66-23.16c-0.78-8.69-4.78-17.17-6.75-25.66
			c-4.15-17.92-0.18-38.26,10.21-53.51C1339.05,149.44,1332.98,145.94,1330.46,149.64L1330.46,149.64z"/>
	</g>
</g>
<g>
	<g>
		<path class="st0" d="M1315.9,133.01c-22.41,27.24-14.29,62.42-15.21,94.77c-0.54,19.02-7.8,36.09-11.73,54.47
			c-4.1,19.15-1.84,38.88,5.45,57.01c12.63,31.4,38.46,57.03,70.06,69.22c35.63,13.74,76.36,8.51,110.26-7.64
			c69.76-33.22,103.48-108.24,109.67-181.94c3.11-36.96,1.03-78.25-19.85-110.27c-9.58-14.69-22.8-25.87-36.61-36.4
			c-15.38-11.71-29.16-23.49-39.26-40.2c-8.45-13.98-16.22-29.12-30.27-38.36c-14.96-9.84-33.23-7.35-47.26,2.93
			c-15.31,11.21-26.77,27.26-37.62,42.57c-11.8,16.65-22.6,33.92-31.96,52.07c-4.82,9.35-9.25,18.89-13.35,28.57
			c-1.74,4.1,4.29,7.67,6.04,3.53c14.92-35.23,34.69-68.89,58.75-98.69c10.58-13.11,24.38-29.17,42.45-30.35
			c18.32-1.2,30.78,14.2,39.45,28.28c8.53,13.85,16.11,27.38,28.24,38.52c12.51,11.49,27.09,20.48,39.39,32.22
			c26.94,25.69,35.66,61.92,35.98,98.1c0.61,70.33-23.17,146.82-82.79,188.98c-29.19,20.64-65.64,32.24-101.5,28.15
			c-33.66-3.84-64.04-23.27-82.62-51.47c-9.98-15.15-16.61-32.75-17.65-50.95c-1.08-18.98,6.19-36.18,10.6-54.27
			c7.43-30.51-3.03-62.47,5.37-92.68c2.16-7.79,5.8-14.96,10.94-21.21C1323.69,134.51,1318.76,129.53,1315.9,133.01L1315.9,133.01z"
			/>
	</g>
</g>
<g>
	<g>
		<path class="st0" d="M1275.45,173.79c3.5,14.08,2.18,27.69,0.43,41.89c-1.75,14.19-4.85,28.18-7.7,42.19
			c-5.38,26.46-8.69,52.33-5.02,79.26c3.39,24.86,11.44,48.83,22.65,71.23c11.5,22.98,25.58,45.01,47.72,58.99
			c22.21,14.03,49.3,21.37,75.28,23.66c26.83,2.37,53.84-0.82,80.17-5.96c13.82-2.7,27.52-5.98,41.17-9.42
			c12.04-3.04,24.22-5.64,35.75-10.37c22.41-9.19,40.44-24.21,54.38-43.9c7.92-11.18,14.08-23.33,20.51-35.41
			c6.62-12.45,13.13-24.97,19.32-37.65c11.72-24.05,22.22-48.65,29.17-74.53c13.99-52.09,14.32-108.97-11.85-157.36
			c-11.97-22.13-28.58-40.44-47.95-56.34c-9.79-8.04-20.07-15.44-30.52-22.59c-10.83-7.41-22.33-14.06-32.19-22.74
			c-8.51-7.5-15.67-16.11-21.38-25.92c-4.89-8.4-8.98-17.23-13.46-25.84c-7.88-15.15-17.59-30.64-33.89-37.7
			c-10.09-4.37-21.05-5.14-31.51-1.52c-11.38,3.94-21.52,11.68-31.23,18.63c-20.04,14.35-38.52,30.81-54.78,49.35
			c-16.99,19.37-31.12,40.98-43.39,63.6c-6.58,12.13-12.01,24.87-19.75,36.33c-7.55,11.17-16.06,21.6-24.53,32.06
			c-7.37,9.1-13.85,18.69-16.86,30.14c-1.15,4.36,5.6,6.22,6.75,1.86c3.3-12.55,11.22-22.52,19.4-32.3
			c7.91-9.46,15.49-19.45,22.29-29.74c6.96-10.53,11.94-22.17,17.9-33.27c5.91-10.99,12.26-21.74,19.13-32.15
			c13.73-20.79,29.98-39.69,48.41-56.46c8.77-7.98,17.99-15.45,27.6-22.41c9.7-7.02,20.2-15.43,31.71-19.17
			c19.78-6.42,37.43,5.35,48.09,21.33c9.87,14.8,15.79,31.84,25.68,46.63c6.4,9.58,14.08,17.39,22.83,24.9
			c9.03,7.75,19.83,13.7,29.65,20.42c20.22,13.83,40.51,28.83,56.43,47.63c15.84,18.71,27.61,40.98,33.74,64.69
			c6.92,26.77,8.1,54.86,4.03,82.21c-7.79,52.43-31.09,99.74-55.76,146.03c-11.89,22.31-23.97,44.73-44.7,60.14
			c-19.87,14.77-42.77,20.17-66.36,26.02c-50.84,12.61-105.14,22.63-156.03,4.75c-24.72-8.68-46.11-22.18-60.43-44.66
			c-13.49-21.17-24.39-44.1-31-68.36c-6.63-24.31-8.77-49.65-5.34-74.65c1.88-13.68,4.87-27.17,7.6-40.7
			c2.63-13.01,4.58-26.03,6.29-39.18c1.55-11.93,1.21-23.85-1.69-35.55C1281.11,167.56,1274.36,169.41,1275.45,173.79
			L1275.45,173.79z"/>
	</g>
</g>
<g>
	<g>
		<path class="st0" d="M1174.59,302.61c-4.46,41.99-8.92,83.99-13.39,125.98c-2.17,20.38-4.33,40.75-6.5,61.13
			c-2.2,20.73-5.11,41.43-6.69,62.22c-1.36,17.79-1.6,36.06,4.43,53.11c5.95,16.79,17.57,30.23,30.47,42.19
			c27.88,25.85,60.7,46.31,93.87,64.6c35.45,19.54,71.79,37.48,107.59,56.38c36.73,19.4,73.15,39.4,109.12,60.18
			c71.06,41.07,140.39,85.37,205.8,135.03c64.2,48.74,124.55,102.83,178.02,163.23c6.6,7.45,13.08,15,19.47,22.64
			c2.89,3.46,7.82-1.52,4.95-4.95c-51-60.96-108.93-115.81-171.05-165.3c-63.29-50.42-130.71-95.44-200.12-136.97
			c-70.25-42.03-142.65-80.1-215.32-117.74c-34.25-17.74-68.4-36.11-99.41-59.19c-15.23-11.34-30.25-23.44-42.54-38
			c-11.85-14.04-17.94-30.89-18.92-49.17c-1.08-20.05,1.95-40.28,4.28-60.15c2.39-20.31,4.4-40.66,6.56-61
			c4.38-41.23,8.76-82.46,13.14-123.7c1.08-10.17,2.16-20.34,3.24-30.51C1182.07,298.13,1175.07,298.17,1174.59,302.61
			L1174.59,302.61z"/>
	</g>
</g>
<g>
	<g>
		<path class="st0" d="M1187.22,289.13c1.5-2.57,3.43-4.4,5.26-6.66c1.73-2.14,3.06-4.7,4.55-7.02c3.59-5.58,7.29-11.08,11.11-16.51
			c6.89-9.78,14.18-19.28,21.88-28.44c2.73-3.25,9.38-14.15,13.91-10.09c3.99,3.57,1.52,14.19,1.16,18.89
			c-0.92,11.78-1.7,23.57-2.19,35.37c-1.98,47.58,0.81,96.16,17.08,141.33c1.92,5.33,4.03,10.59,6.29,15.78
			c2.53,5.82,4.95,12.85,8.73,17.99c1.55,2.11,3.15,3.68,4.43,6.05c1.19,2.21,2.32,4.44,3.61,6.59c2.86,4.77,6.13,9.27,9.58,13.63
			c14.18,17.91,30.86,33.32,49.71,46.2c37.54,25.66,81.76,39.31,126.46,45.68c24.91,3.55,50.75,2.95,75.34-2.3
			c23.09-4.92,44.03-14.51,63.33-28.09c35.27-24.82,63.22-57.82,86.94-93.56c12.09-18.21,23.19-37.05,34.15-55.95
			c11.78-20.31,21.71-41.74,31.28-63.2c19.12-42.92,33.27-88.57,35.08-135.81c1.74-45.55-6.72-93.2-35.29-129.86
			c-29.38-37.7-72.67-64.77-94.03-108.58c-5.37-11.01-8.73-24.03-9.18-36.28c-0.16-4.49-7.17-4.51-7,0
			c1.81,49.33,41.57,83.97,74.3,115.83c16.96,16.51,33.47,34.12,44.6,55.21c10.97,20.78,16.19,44.03,18.51,67.28
			c4.78,47.92-4.64,95.61-21.42,140.42c-8.49,22.66-19.61,43.98-29.3,66.1c-4.51,10.3-10.38,19.85-16.03,29.55
			c-5.52,9.49-11.09,18.95-16.82,28.31c-22.46,36.72-47.75,72.09-80.77,100.12c-17.72,15.04-37.87,28.84-60.02,36.41
			c-24.35,8.31-50.24,10.48-75.81,9.06c-23.23-1.29-46.56-6.13-68.83-12.76c-21.72-6.47-42.69-15.4-62.05-27.24
			c-10.48-6.41-19.83-13.89-29.41-21.52c-8.72-6.95-16.19-15.18-23.48-23.61c-3.79-4.38-7.42-8.89-10.66-13.69
			c-3.2-4.74-5.28-10.23-8.44-14.9c-1.4-2.06-3.19-3.64-4.44-5.89c-1.47-2.65-2.74-5.43-4.04-8.16c-2.93-6.22-5.58-12.56-7.96-19.01
			c-16.6-45.09-19.42-93.52-17.44-141.13c0.52-12.39,1.35-24.77,2.33-37.14c0.71-8.86,2.29-20.34-7.29-25.11
			c-3.98-1.98-7.72-0.59-10.59,2.43c-4.24,4.47-8.16,9.31-12.07,14.07c-7.43,9.03-14.5,18.36-21.2,27.95
			c-3.46,4.95-6.82,9.97-10.09,15.05c-3.05,4.73-6.98,8.82-9.81,13.67C1178.9,289.5,1184.95,293.03,1187.22,289.13L1187.22,289.13z"
			/>
	</g>
</g>
<g>
	<g>
		<path class="st0" d="M1198.2,351.84c-4.25,40.92-5.2,82.15-2.68,123.22c2.16,35.16,4.11,74.28,26.29,103.4
			c20.12,26.42,51.34,41.84,81.22,54.53c33.46,14.21,68.33,24.68,103.6,33.33c71.29,17.49,144.26,27.82,214.73,48.67
			c70.99,21,137.7,55.26,198.68,97.04c54.84,37.57,105.41,83.78,139.16,141.66c4.15,7.11,8.01,14.38,11.62,21.78
			c1.98,4.05,8.02,0.5,6.04-3.53c-28.9-59.18-75.13-107.55-127.16-147.1c-26.93-20.47-55.52-38.71-84.93-55.4
			c-33.04-18.76-67.32-35.47-103.04-48.53c-68.8-25.16-141.44-36.75-212.8-52.08c-35.56-7.64-71-16.23-105.47-27.91
			c-32.63-11.06-66.85-24.18-94.45-45.3c-13.5-10.33-24.98-23.23-32.07-38.78c-7.51-16.47-10.24-34.76-12.06-52.61
			c-4.14-40.46-4.85-81.29-2.26-121.88c0.65-10.18,1.52-20.34,2.57-30.49C1205.66,347.36,1198.66,347.39,1198.2,351.84
			L1198.2,351.84z"/>
	</g>
</g>
<g>
	<g>
		<path class="st0" d="M1204.09,358.64c-0.02-4.72,0.58-9.33,2.06-13.83c0.68-2.09,1.54-4.11,2.56-6.06
			c0.77-1.47,2.65-5.88,4.33-6.45c3.91-1.32,5.72,7.44,6.63,10.22c1.6,4.93,2.82,9.97,3.82,15.04c3.43,17.37,4.95,35.09,8.12,52.52
			c5.75,31.58,14.32,62.88,28.17,91.93c13.39,28.08,32.19,53.66,57.06,72.59c28,21.31,61.99,32.69,96.07,39.85
			c37.13,7.81,75.34,12.7,113.1,16.13c39.79,3.61,80.05,3.7,119.27-4.69c66.61-14.25,125.87-49.94,183.41-84.87
			c29.43-17.86,58.83-35.86,89.5-51.54c15.07-7.7,30.5-15.39,46.5-20.98c13.86-4.84,29.64-8.53,44.26-5.12
			c7.25,1.69,13.47,5.24,18.51,10.72c3.06,3.32,8-1.64,4.95-4.95c-21.52-23.36-57.55-12.93-82.68-2.22
			c-32.59,13.89-63.51,31.35-93.89,49.49c-59.82,35.72-118.9,75.56-186.21,95.92c-38.23,11.56-77.7,14.96-117.51,13.07
			c-40.66-1.93-81.55-7.52-121.6-14.66c-35.69-6.37-71.75-15.98-102.16-36.46c-27.55-18.55-47.95-45.42-62.23-75.14
			c-14.55-30.27-23.04-63.23-28.72-96.21c-3.11-18.06-4.34-36.58-8.76-54.38c-1.69-6.8-3.69-18.24-10.07-22.47
			c-6.92-4.6-12.56,2.96-15.54,8.39c-4.08,7.42-5.99,15.73-5.96,24.17C1197.11,363.14,1204.11,363.15,1204.09,358.64L1204.09,358.64
			z"/>
	</g>
</g>
<g>
	<g>
		<path class="st0" d="M650.95,292.6c4.78-6.65,8.98-13.63,12.6-20.96c1.99-4.02-4.05-7.58-6.04-3.53
			c-3.63,7.34-7.83,14.32-12.6,20.96C642.27,292.73,648.34,296.23,650.95,292.6L650.95,292.6z"/>
	</g>
</g>
<g>
	<g>
		<path class="st0" d="M758.4,369.89c-0.43,8.2-0.53,16.4-0.3,24.61c0.13,4.49,7.13,4.51,7,0c-0.23-8.21-0.14-16.41,0.3-24.61
			C765.63,365.39,758.63,365.4,758.4,369.89L758.4,369.89z"/>
	</g>
</g>
<g>
	<g>
		<path class="st0" d="M711.4,364.96c-0.06-4.94,0.24-9.85,1.02-14.73c0.71-4.41-6.04-6.3-6.75-1.86
			c-0.88,5.51-1.34,11.01-1.27,16.59C704.45,369.47,711.45,369.48,711.4,364.96L711.4,364.96z"/>
	</g>
</g>
<g>
	<g>
		<path class="st0" d="M829.09,474.55c0.15,1.67,0.37,3.44,0.11,5.11c-0.25,1.6-1.14,2.7-2.09,3.95c-1.15,1.5-0.23,3.92,1.26,4.79
			c1.8,1.05,3.64,0.25,4.79-1.26c2.94-3.85,3.36-7.87,2.94-12.59c-0.17-1.88-1.49-3.5-3.5-3.5
			C830.83,471.05,828.92,472.66,829.09,474.55L829.09,474.55z"/>
	</g>
</g>
<g>
	<g>
		<path class="st0" d="M940.25,385.69c-0.13,3.17,0.14,6.34,0.97,9.41c0.84,3.12,2.21,5.97,2.07,9.27c-0.19,4.5,6.81,4.5,7,0
			c0.27-6.46-3.31-12.12-3.04-18.68C947.44,381.19,940.44,381.2,940.25,385.69L940.25,385.69z"/>
	</g>
</g>
<g>
	<g>
		<path class="st0" d="M140.39,305.95c7.68-12.95,15.6-25.74,23.77-38.39c2.45-3.8-3.61-7.31-6.04-3.53
			c-8.17,12.64-16.09,25.44-23.77,38.39C132.04,306.3,138.09,309.82,140.39,305.95L140.39,305.95z"/>
	</g>
</g>
<g>
	<g>
		<path class="st0" d="M1275.92,154.76c-0.44,5.71-1.55,11.8-0.94,17.51c0.47,4.43,7.48,4.48,7,0c-0.61-5.71,0.5-11.8,0.94-17.51
			C1283.27,150.26,1276.27,150.29,1275.92,154.76L1275.92,154.76z"/>
	</g>
</g>
<g>
	<g>
		<path class="st0" d="M1320.68,137.85c2.22-2.59,4.54-5.08,6.98-7.46c2.25-2.19,4.71-4.12,6.39-6.81c2.4-3.83-3.66-7.35-6.04-3.53
			c-1.48,2.36-4.03,4.13-5.99,6.08c-2.19,2.17-4.28,4.44-6.28,6.78C1312.81,136.3,1317.74,141.28,1320.68,137.85L1320.68,137.85z"/>
	</g>
</g>
<g>
	<g>
		<path class="st0" d="M1336.1,153.26c3.12-3.01,6.4-5.83,9.89-8.4c1.52-1.12,2.28-3.03,1.26-4.79c-0.88-1.5-3.26-2.38-4.79-1.26
			c-3.97,2.92-7.76,6.07-11.31,9.49C1327.9,151.45,1332.86,156.39,1336.1,153.26L1336.1,153.26z"/>
	</g>
</g>
<g>
	<g>
		<path class="st0" d="M1344.69,200.79c-0.15-7.6,1.93-14.47,6.19-20.77c2.53-3.74-3.53-7.25-6.04-3.53
			c-4.89,7.23-7.31,15.58-7.15,24.3C1337.78,205.29,1344.78,205.31,1344.69,200.79L1344.69,200.79z"/>
	</g>
</g>
<g>
	<g>
		<path class="st0" d="M1181.21,304.13c1.03-5.38,3.96-10.48,6.2-15.43c1.84-4.07-4.19-7.64-6.04-3.53
			c-2.47,5.48-5.77,11.15-6.9,17.1C1173.62,306.68,1180.36,308.56,1181.21,304.13L1181.21,304.13z"/>
	</g>
</g>
<g>
	<g>
		<path class="st0" d="M1357.03,195.33c0.13,5.93-0.08,11.99,0.43,17.9c0.28,3.29,1.34,6.71,4.85,7.79
			c7.33,2.25,15.58-9.77,17.07-15.73c1.98-7.93,0.44-17.26-8.47-19.61c-7.92-2.09-15.18,2.71-14.02,11.17
			c0.61,4.44,7.35,2.55,6.75-1.86c-0.55-4.02,5.59-2.85,7.12-1.92c2.09,1.27,2.24,3.41,2.3,5.67c0.12,4.33-1.25,7.83-4.15,11.06
			c-0.46,0.51-3.36,3.96-3.92,3.81c-1.12-0.3-0.66-4.36-0.67-5.02c-0.1-4.42-0.2-8.85-0.3-13.27
			C1363.93,190.83,1356.93,190.81,1357.03,195.33L1357.03,195.33z"/>
	</g>
</g>
</svg>
